<svg xmlns="http://www.w3.org/2000/svg" width="1360" height="940" viewBox="0 0 1360 940" role="img" aria-labelledby="title desc">
  <title id="title">XCompiler system architecture</title>
  <desc id="desc">XCompiler architecture with thin adapters above the Runtime, workflow and execution capabilities below it, and infrastructure at the bottom. Curved and bus-like paths avoid crossing between layers.</desc>
  <defs>
    <filter id="soft-shadow" x="-20%" y="-20%" width="140%" height="160%">
      <feDropShadow dx="0" dy="8" stdDeviation="10" flood-color="#0f172a" flood-opacity="0.10"/>
    </filter>
    <linearGradient id="panel-fill" x1="0" y1="0" x2="1" y2="1">
      <stop offset="0%" stop-color="#ffffff"/>
      <stop offset="100%" stop-color="#f8fafc"/>
    </linearGradient>
    <marker id="arrow-dark" markerWidth="10" markerHeight="10" refX="8" refY="3" orient="auto" markerUnits="strokeWidth">
      <path d="M0,0 L0,6 L9,3 z" fill="#334155"/>
    </marker>
    <marker id="arrow-purple" markerWidth="10" markerHeight="10" refX="8" refY="3" orient="auto" markerUnits="strokeWidth">
      <path d="M0,0 L0,6 L9,3 z" fill="#7c3aed"/>
    </marker>
    <style>
      .bg { fill: #f6f8fb; }
      .title { font: 700 34px Inter, ui-sans-serif, system-ui, -apple-system, BlinkMacSystemFont, "Segoe UI", sans-serif; fill: #0f172a; }
      .subtitle { font: 500 16px Inter, ui-sans-serif, system-ui, -apple-system, BlinkMacSystemFont, "Segoe UI", sans-serif; fill: #475569; }
      .layer { fill: url(#panel-fill); stroke: #cbd5e1; stroke-width: 1.4; rx: 18; filter: url(#soft-shadow); }
      .layer-name { font: 800 15px Inter, ui-sans-serif, system-ui, -apple-system, BlinkMacSystemFont, "Segoe UI", sans-serif; fill: #334155; letter-spacing: 0; }
      .label { font: 700 15px Inter, ui-sans-serif, system-ui, -apple-system, BlinkMacSystemFont, "Segoe UI", sans-serif; fill: #0f172a; }
      .small { font: 500 12px Inter, ui-sans-serif, system-ui, -apple-system, BlinkMacSystemFont, "Segoe UI", sans-serif; fill: #475569; }
      .box { fill: #f8fafc; stroke: #94a3b8; stroke-width: 1.4; rx: 12; }
      .adapter { fill: #eff6ff; stroke: #2563eb; }
      .runtime { fill: #f5f3ff; stroke: #7c3aed; }
      .workflow { fill: #ecfeff; stroke: #0891b2; }
      .execution { fill: #f0fdf4; stroke: #16a34a; }
      .infra { fill: #fffbeb; stroke: #d97706; }
      .store { fill: #fef2f2; stroke: #dc2626; }
      .big-arrow { fill: #dbeafe; stroke: #2563eb; stroke-width: 1.5; }
      .big-arrow-text { font: 800 13px Inter, ui-sans-serif, system-ui, -apple-system, BlinkMacSystemFont, "Segoe UI", sans-serif; fill: #1e40af; }
      .bus { fill: none; stroke: #334155; stroke-width: 2.2; stroke-linecap: round; }
      .line { fill: none; stroke: #334155; stroke-width: 2.2; stroke-linecap: round; marker-end: url(#arrow-dark); }
      .event { fill: none; stroke: #7c3aed; stroke-width: 2.2; stroke-dasharray: 7 8; stroke-linecap: round; marker-end: url(#arrow-purple); }
    </style>
  </defs>

  <rect class="bg" width="1360" height="940"/>
  <text class="title" x="680" y="48" text-anchor="middle">System Architecture</text>
  <text class="subtitle" x="680" y="76" text-anchor="middle">Adapters translate surfaces into Runtime calls; Runtime owns workflow, capabilities, permissions, and events.</text>

  <rect class="layer" x="52" y="108" width="1256" height="122"/>
  <text class="layer-name" x="82" y="140">Adapter layer</text>
  <rect class="box adapter" x="116" y="154" width="242" height="50"/>
  <text class="label" x="237" y="174" text-anchor="middle">CLI Adapter</text>
  <text class="small" x="237" y="193" text-anchor="middle">args, config, prompts, exit codes</text>
  <rect class="box adapter" x="559" y="154" width="242" height="50"/>
  <text class="label" x="680" y="174" text-anchor="middle">ACP Code Agent</text>
  <text class="small" x="680" y="193" text-anchor="middle">stdio JSON-RPC for IDEs</text>
  <rect class="box adapter" x="1002" y="154" width="242" height="50"/>
  <text class="label" x="1123" y="174" text-anchor="middle">Future Adapters</text>
  <text class="small" x="1123" y="193" text-anchor="middle">REST, GUI, SDK</text>

  <path class="big-arrow" d="M612 240 H748 V262 H790 L680 294 L570 262 H612 Z"/>
  <text class="big-arrow-text" x="680" y="259" text-anchor="middle">Runtime calls</text>

  <rect class="layer" x="52" y="300" width="1256" height="166"/>
  <text class="layer-name" x="82" y="332">Runtime layer</text>
  <rect class="box runtime" x="112" y="368" width="200" height="64"/>
  <text class="label" x="212" y="392" text-anchor="middle">Runtime API</text>
  <text class="small" x="212" y="413" text-anchor="middle">public business entry</text>
  <rect class="box runtime" x="342" y="368" width="200" height="64"/>
  <text class="label" x="442" y="392" text-anchor="middle">Build Service</text>
  <text class="small" x="442" y="413" text-anchor="middle">clarify, design, plan</text>
  <rect class="box runtime" x="572" y="368" width="200" height="64"/>
  <text class="label" x="672" y="392" text-anchor="middle">Run Service</text>
  <text class="small" x="672" y="413" text-anchor="middle">execute phase plans</text>
  <rect class="box runtime" x="802" y="368" width="200" height="64"/>
  <text class="label" x="902" y="392" text-anchor="middle">Event Stream</text>
  <text class="small" x="902" y="413" text-anchor="middle">progress and results</text>
  <rect class="box runtime" x="1032" y="368" width="216" height="64"/>
  <text class="label" x="1140" y="392" text-anchor="middle">Permission Broker</text>
  <text class="small" x="1140" y="413" text-anchor="middle">authorization gates</text>

  <path class="line" d="M312 400 L342 400"/>
  <path class="line" d="M542 400 L572 400"/>
  <path class="line" d="M772 400 L802 400"/>
  <path class="line" d="M1002 400 L1032 400"/>

  <rect class="layer" x="52" y="512" width="1256" height="122"/>
  <text class="layer-name" x="82" y="544">Workflow and planning layer</text>
  <rect class="box workflow" x="164" y="564" width="240" height="46"/>
  <text class="label" x="284" y="583" text-anchor="middle">Phase Planner</text>
  <text class="small" x="284" y="600" text-anchor="middle">complexity, priorities, gates</text>
  <rect class="box workflow" x="560" y="564" width="240" height="46"/>
  <text class="label" x="680" y="583" text-anchor="middle">V-Model Engine</text>
  <text class="small" x="680" y="600" text-anchor="middle">stage order, rollback, resume</text>
  <rect class="box workflow" x="956" y="564" width="240" height="46"/>
  <text class="label" x="1076" y="583" text-anchor="middle">Issue Router</text>
  <text class="small" x="1076" y="600" text-anchor="middle">stage-aware debug routing</text>

  <path class="line" d="M442 432 C426 474 360 520 284 564"/>
  <path class="line" d="M672 432 L680 564"/>
  <path class="line" d="M1140 432 C1122 474 1094 520 1076 564"/>

  <rect class="layer" x="52" y="680" width="1256" height="128"/>
  <text class="layer-name" x="82" y="712">Execution capability layer</text>
  <rect class="box execution" x="104" y="734" width="260" height="48"/>
  <text class="label" x="234" y="754" text-anchor="middle">Agents / Skills</text>
  <text class="small" x="234" y="772" text-anchor="middle">Planner, Architect, Coder, Tester</text>
  <rect class="box execution" x="412" y="734" width="202" height="48"/>
  <text class="label" x="513" y="754" text-anchor="middle">Tool Guard</text>
  <text class="small" x="513" y="772" text-anchor="middle">read, write, shell, http, git</text>
  <rect class="box execution" x="666" y="734" width="202" height="48"/>
  <text class="label" x="767" y="754" text-anchor="middle">PluginHost</text>
  <text class="small" x="767" y="772" text-anchor="middle">hooks, tools, skills</text>
  <rect class="box execution" x="920" y="734" width="324" height="48"/>
  <text class="label" x="1082" y="754" text-anchor="middle">Project Memory</text>
  <text class="small" x="1082" y="772" text-anchor="middle">.xc progress and .xcompiler state</text>

  <path class="line" d="M284 610 C276 646 258 690 234 734"/>
  <path class="line" d="M680 610 C648 654 580 700 513 734"/>
  <path class="line" d="M680 610 C708 654 734 700 767 734"/>
  <path class="line" d="M1076 610 C1078 648 1080 694 1082 734"/>

  <rect class="layer" x="52" y="850" width="1256" height="64"/>
  <text class="layer-name" x="82" y="884">Infrastructure layer</text>
  <rect class="box infra" x="126" y="874" width="222" height="30"/>
  <text class="label" x="237" y="894" text-anchor="middle">LLM Router + Providers</text>
  <rect class="box infra" x="418" y="874" width="190" height="30"/>
  <text class="label" x="513" y="894" text-anchor="middle">Sandbox</text>
  <rect class="box store" x="674" y="874" width="214" height="30"/>
  <text class="label" x="781" y="894" text-anchor="middle">Workspace Files</text>
  <rect class="box store" x="964" y="874" width="236" height="30"/>
  <text class="label" x="1082" y="894" text-anchor="middle">Audit Logs</text>

  <path class="line" d="M234 782 C234 812 236 842 237 874"/>
  <path class="line" d="M513 782 L513 874"/>
  <path class="line" d="M767 782 C770 812 779 842 781 874"/>
  <path class="line" d="M1082 782 L1082 874"/>
</svg>
